<?xml version="1.0" encoding="UTF-8" standalone="no"?>
<svg
   xmlns:dc="http://purl.org/dc/elements/1.1/"
   xmlns:cc="http://creativecommons.org/ns#"
   xmlns:rdf="http://www.w3.org/1999/02/22-rdf-syntax-ns#"
   xmlns:svg="http://www.w3.org/2000/svg"
   xmlns="http://www.w3.org/2000/svg"
   xmlns:xlink="http://www.w3.org/1999/xlink"
   xmlns:sodipodi="http://sodipodi.sourceforge.net/DTD/sodipodi-0.dtd"
   xmlns:inkscape="http://www.inkscape.org/namespaces/inkscape"
   height="216pt"
   version="1.1"
   viewBox="0 0 288 216"
   width="288pt"
   id="svg287"
   sodipodi:docname="param_h1.svg"
   inkscape:version="1.0.1 (3bc2e813f5, 2020-09-07)">
  <sodipodi:namedview
     pagecolor="#ffffff"
     bordercolor="#666666"
     borderopacity="1"
     objecttolerance="10"
     gridtolerance="10"
     guidetolerance="10"
     inkscape:pageopacity="0"
     inkscape:pageshadow="2"
     inkscape:window-width="1366"
     inkscape:window-height="705"
     id="namedview289"
     showgrid="false"
     inkscape:zoom="1.2664684"
     inkscape:cx="99.887125"
     inkscape:cy="152.62828"
     inkscape:window-x="-8"
     inkscape:window-y="-8"
     inkscape:window-maximized="1"
     inkscape:current-layer="svg287" />
  <metadata
     id="metadata2">
    <rdf:RDF>
      <cc:Work>
        <dc:type
           rdf:resource="http://purl.org/dc/dcmitype/StillImage" />
        <dc:date>2021-03-14T12:54:14.953475</dc:date>
        <dc:format>image/svg+xml</dc:format>
        <dc:creator>
          <cc:Agent>
            <dc:title>Matplotlib v3.3.3, https://matplotlib.org/</dc:title>
          </cc:Agent>
        </dc:creator>
      </cc:Work>
    </rdf:RDF>
  </metadata>
  <defs
     id="defs6">
    <style
       type="text/css"
       id="style4">*{stroke-linecap:butt;stroke-linejoin:round;}</style>
  </defs>
  <g
     id="axes_1"
     transform="translate(15.17945,-9.3384591)">
    <g
       id="patch_2">
      <path
         d="m 43.2,177.12 h 216 V 25.92 h -216 z"
         style="fill:#ffffff"
         id="path11" />
    </g>
    <g
       id="patch_3">
      <path
         clip-path="url(#pad3d424f9d)"
         d="M 53.018182,1602.2947 H 94.357895 V 96.061683 H 53.018182 Z"
         style="fill:#801a80;fill-opacity:0.6"
         id="path14" />
    </g>
    <g
       id="patch_4">
      <path
         clip-path="url(#pad3d424f9d)"
         d="m 104.69282,1602.2947 h 41.33972 V 69.11412 h -41.33972 z"
         style="fill:#801a80;fill-opacity:0.6"
         id="path17" />
    </g>
    <g
       id="patch_5">
      <path
         clip-path="url(#pad3d424f9d)"
         d="m 156.36746,1602.2947 h 41.33972 V 133.92588 h -41.33972 z"
         style="fill:#801a80;fill-opacity:0.6"
         id="path20" />
    </g>
    <g
       id="patch_6">
      <path
         clip-path="url(#pad3d424f9d)"
         d="m 208.0421,1602.2947 h 41.33972 V 114.65361 H 208.0421 Z"
         style="fill:#801a80;fill-opacity:0.6"
         id="path23" />
    </g>
    <g
       id="matplotlib.axis_1">
      <g
         id="xtick_1">
        <g
           id="line2d_1">
          <defs
             id="defs27">
            <path
               d="M 0,0 V 3.5"
               id="m732429ab66"
               style="stroke:#000000;stroke-width:0.8" />
          </defs>
          <g
             id="g31">
            <use
               style="stroke:#000000;stroke-width:0.8"
               x="73.688042"
               xlink:href="#m732429ab66"
               y="177.12"
               id="use29"
               width="100%"
               height="100%" />
          </g>
        </g>
        <g
           id="text_1">
          <!-- 24 -->
          <g
             transform="matrix(0.1,0,0,-0.1,67.325538,191.71844)"
             id="g42">
            <defs
               id="defs36">
              <path
                 d="M 19.1875,8.296875 H 53.609375 V 0 H 7.328125 v 8.296875 q 5.609375,5.8125 15.296875,15.59375 9.703125,9.796875 12.1875,12.640625 4.734375,5.3125 6.609375,9 1.890625,3.6875 1.890625,7.25 0,5.8125 -4.078125,9.46875 -4.078125,3.671875 -10.625,3.671875 -4.640625,0 -9.796875,-1.609375 -5.140625,-1.609375 -11,-4.890625 v 9.96875 Q 13.765625,71.78125 18.9375,73 q 5.1875,1.21875 9.484375,1.21875 11.328125,0 18.0625,-5.671875 6.734375,-5.65625 6.734375,-15.125 0,-4.5 -1.6875,-8.53125 Q 49.859375,40.875 45.40625,35.40625 44.1875,33.984375 37.640625,27.21875 31.109375,20.453125 19.1875,8.296875 Z"
                 id="DejaVuSans-50" />
              <path
                 d="M 37.796875,64.3125 12.890625,25.390625 h 24.90625 z m -2.59375,8.59375 h 12.40625 V 25.390625 h 10.40625 V 17.1875 H 47.609375 V 0 h -9.8125 V 17.1875 H 4.890625 v 9.515625 z"
                 id="DejaVuSans-52" />
            </defs>
            <use
               xlink:href="#DejaVuSans-50"
               id="use38"
               x="0"
               y="0"
               width="100%"
               height="100%" />
            <use
               x="63.623047"
               xlink:href="#DejaVuSans-52"
               id="use40"
               y="0"
               width="100%"
               height="100%" />
          </g>
        </g>
      </g>
      <g
         id="xtick_2">
        <g
           id="line2d_2">
          <g
             id="g48">
            <use
               style="stroke:#000000;stroke-width:0.8"
               x="125.36268"
               xlink:href="#m732429ab66"
               y="177.12"
               id="use46"
               width="100%"
               height="100%" />
          </g>
        </g>
        <g
           id="text_2">
          <!-- 32 -->
          <g
             transform="matrix(0.1,0,0,-0.1,119.00018,191.71844)"
             id="g58">
            <defs
               id="defs52">
              <path
                 d="M 40.578125,39.3125 Q 47.65625,37.796875 51.625,33 q 3.984375,-4.78125 3.984375,-11.8125 0,-10.78125 -7.421875,-16.703125 -7.421875,-5.90625 -21.09375,-5.90625 -4.578125,0 -9.4375,0.90625 -4.859375,0.90625 -10.03125,2.71875 v 9.515625 q 4.09375,-2.390625 8.96875,-3.609375 4.890625,-1.21875 10.21875,-1.21875 9.265625,0 14.125,3.65625 4.859375,3.65625 4.859375,10.640625 0,6.453125 -4.515625,10.078125 -4.515625,3.640625 -12.5625,3.640625 h -8.5 v 8.109375 h 8.890625 q 7.265625,0 11.125,2.90625 3.859375,2.90625 3.859375,8.375 0,5.609375 -3.984375,8.609375 -3.96875,3.015625 -11.390625,3.015625 -4.0625,0 -8.703125,-0.890625 Q 15.375,64.15625 9.8125,62.3125 v 8.78125 q 5.625,1.5625 10.53125,2.34375 4.90625,0.78125 9.25,0.78125 11.234375,0 17.765625,-5.109375 6.546875,-5.09375 6.546875,-13.78125 0,-6.0625 -3.46875,-10.234375 -3.46875,-4.171875 -9.859375,-5.78125 z"
                 id="DejaVuSans-51" />
            </defs>
            <use
               xlink:href="#DejaVuSans-51"
               id="use54"
               x="0"
               y="0"
               width="100%"
               height="100%" />
            <use
               x="63.623047"
               xlink:href="#DejaVuSans-50"
               id="use56"
               y="0"
               width="100%"
               height="100%" />
          </g>
        </g>
      </g>
      <g
         id="xtick_3">
        <g
           id="line2d_3">
          <g
             id="g64">
            <use
               style="stroke:#000000;stroke-width:0.8"
               x="177.03732"
               xlink:href="#m732429ab66"
               y="177.12"
               id="use62"
               width="100%"
               height="100%" />
          </g>
        </g>
        <g
           id="text_3">
          <!-- 40 -->
          <g
             transform="matrix(0.1,0,0,-0.1,170.67482,191.71844)"
             id="g74">
            <defs
               id="defs68">
              <path
                 d="m 31.78125,66.40625 q -7.609375,0 -11.453125,-7.5 Q 16.5,51.421875 16.5,36.375 q 0,-14.984375 3.828125,-22.484375 3.84375,-7.5 11.453125,-7.5 7.671875,0 11.5,7.5 3.84375,7.5 3.84375,22.484375 0,15.046875 -3.84375,22.53125 -3.828125,7.5 -11.5,7.5 z m 0,7.8125 q 12.265625,0 18.734375,-9.703125 6.46875,-9.6875 6.46875,-28.140625 0,-18.40625 -6.46875,-28.109375 -6.46875,-9.6875 -18.734375,-9.6875 -12.25,0 -18.71875,9.6875 Q 6.59375,17.96875 6.59375,36.375 q 0,18.453125 6.46875,28.140625 6.46875,9.703125 18.71875,9.703125 z"
                 id="DejaVuSans-48" />
            </defs>
            <use
               xlink:href="#DejaVuSans-52"
               id="use70"
               x="0"
               y="0"
               width="100%"
               height="100%" />
            <use
               x="63.623047"
               xlink:href="#DejaVuSans-48"
               id="use72"
               y="0"
               width="100%"
               height="100%" />
          </g>
        </g>
      </g>
      <g
         id="xtick_4">
        <g
           id="line2d_4">
          <g
             id="g80">
            <use
               style="stroke:#000000;stroke-width:0.8"
               x="228.71196"
               xlink:href="#m732429ab66"
               y="177.12"
               id="use78"
               width="100%"
               height="100%" />
          </g>
        </g>
        <g
           id="text_4">
          <!-- 48 -->
          <g
             transform="matrix(0.1,0,0,-0.1,222.34946,191.71844)"
             id="g90">
            <defs
               id="defs84">
              <path
                 d="m 31.78125,34.625 q -7.03125,0 -11.0625,-3.765625 -4.015625,-3.765625 -4.015625,-10.34375 0,-6.59375 4.015625,-10.359375 4.03125,-3.765625 11.0625,-3.765625 7.03125,0 11.078125,3.78125 4.0625,3.796875 4.0625,10.34375 0,6.578125 -4.03125,10.34375 Q 38.875,34.625 31.78125,34.625 Z m -9.859375,4.1875 Q 15.578125,40.375 12.03125,44.71875 8.5,49.078125 8.5,55.328125 q 0,8.734375 6.21875,13.8125 6.234375,5.078125 17.0625,5.078125 10.890625,0 17.09375,-5.078125 6.203125,-5.078125 6.203125,-13.8125 0,-6.25 -3.546875,-10.609375 Q 48,40.375 41.703125,38.8125 q 7.125,-1.65625 11.09375,-6.5 3.984375,-4.828125 3.984375,-11.796875 0,-10.609375 -6.46875,-16.28125 -6.46875,-5.65625 -18.53125,-5.65625 -12.046875,0 -18.53125,5.65625 -6.46875,5.671875 -6.46875,16.28125 0,6.96875 4,11.796875 4.015625,4.84375 11.140625,6.5 z M 18.3125,54.390625 q 0,-5.65625 3.53125,-8.828125 3.546875,-3.171875 9.9375,-3.171875 6.359375,0 9.9375,3.171875 3.59375,3.171875 3.59375,8.828125 0,5.671875 -3.59375,8.84375 -3.578125,3.171875 -9.9375,3.171875 -6.390625,0 -9.9375,-3.171875 Q 18.3125,60.0625 18.3125,54.390625 Z"
                 id="DejaVuSans-56" />
            </defs>
            <use
               xlink:href="#DejaVuSans-52"
               id="use86"
               x="0"
               y="0"
               width="100%"
               height="100%" />
            <use
               x="63.623047"
               xlink:href="#DejaVuSans-56"
               id="use88"
               y="0"
               width="100%"
               height="100%" />
          </g>
        </g>
      </g>
      <g
         id="text_5">
        <!-- Number of Hidden States (H) -->
        <g
           transform="matrix(0.14,0,0,-0.14,49.69125,208.43594)"
           id="g169">
          <defs
             id="defs113">
            <path
               d="M 9.8125,72.90625 H 23.09375 L 55.421875,11.921875 V 72.90625 h 9.5625 V 0 h -13.28125 l -32.3125,60.984375 V 0 H 9.8125 Z"
               id="DejaVuSans-78" />
            <path
               d="M 8.5,21.578125 V 54.6875 h 8.984375 V 21.921875 q 0,-7.765625 3.015625,-11.65625 3.03125,-3.875 9.09375,-3.875 7.265625,0 11.484375,4.640625 4.234375,4.640625 4.234375,12.65625 v 31 h 8.984375 V 0 H 45.3125 V 8.40625 Q 42.046875,3.421875 37.71875,1 33.40625,-1.421875 27.6875,-1.421875 18.265625,-1.421875 13.375,4.4375 8.5,10.296875 8.5,21.578125 Z M 31.109375,56 Z"
               id="DejaVuSans-117" />
            <path
               d="M 52,44.1875 Q 55.375,50.25 60.0625,53.125 64.75,56 71.09375,56 q 8.546875,0 13.1875,-5.984375 4.640625,-5.96875 4.640625,-17 V 0 h -9.03125 v 32.71875 q 0,7.859375 -2.796875,11.65625 -2.78125,3.8125 -8.484375,3.8125 -6.984375,0 -11.046875,-4.640625 -4.046875,-4.625 -4.046875,-12.640625 V 0 h -9.03125 v 32.71875 q 0,7.90625 -2.78125,11.6875 -2.78125,3.78125 -8.59375,3.78125 -6.890625,0 -10.953125,-4.65625 -4.046875,-4.65625 -4.046875,-12.625 V 0 h -9.03125 v 54.6875 h 9.03125 v -8.5 q 3.078125,5.03125 7.375,7.421875 Q 29.78125,56 35.6875,56 41.65625,56 45.828125,52.96875 50,49.953125 52,44.1875 Z"
               id="DejaVuSans-109" />
            <path
               d="m 48.6875,27.296875 q 0,9.90625 -4.078125,15.546875 -4.078125,5.640625 -11.203125,5.640625 -7.140625,0 -11.21875,-5.640625 -4.078125,-5.640625 -4.078125,-15.546875 0,-9.90625 4.078125,-15.546875 4.078125,-5.640625 11.21875,-5.640625 7.125,0 11.203125,5.640625 4.078125,5.640625 4.078125,15.546875 z m -30.578125,19.09375 q 2.84375,4.875 7.15625,7.234375 Q 29.59375,56 35.59375,56 q 9.96875,0 16.1875,-7.90625 6.234375,-7.90625 6.234375,-20.796875 0,-12.890625 -6.234375,-20.8125 -6.21875,-7.90625 -16.1875,-7.90625 -6,0 -10.328125,2.375 -4.3125,2.375 -7.15625,7.25 V 0 h -9.03125 v 75.984375 h 9.03125 z"
               id="DejaVuSans-98" />
            <path
               d="m 56.203125,29.59375 v -4.390625 h -41.3125 q 0.59375,-9.28125 5.59375,-14.140625 5,-4.859375 13.9375,-4.859375 5.171875,0 10.03125,1.265625 4.859375,1.265625 9.65625,3.8125 v -8.5 q -4.84375,-2.046875 -9.921875,-3.125 -5.078125,-1.078125 -10.296875,-1.078125 -13.09375,0 -20.734375,7.609375 -7.640625,7.625 -7.640625,20.625 0,13.421875 7.25,21.296875 Q 20.015625,56 32.328125,56 q 11.03125,0 17.453125,-7.109375 6.421875,-7.09375 6.421875,-19.296875 z m -8.984375,2.640625 q -0.09375,7.359375 -4.125,11.75 -4.03125,4.40625 -10.671875,4.40625 -7.515625,0 -12.03125,-4.25 -4.515625,-4.25 -5.203125,-11.96875 z"
               id="DejaVuSans-101" />
            <path
               d="m 41.109375,46.296875 q -1.515625,0.875 -3.296875,1.28125 Q 36.03125,48 33.890625,48 26.265625,48 22.1875,43.046875 18.109375,38.09375 18.109375,28.8125 V 0 h -9.03125 v 54.6875 h 9.03125 v -8.5 q 2.84375,4.984375 7.375,7.390625 Q 30.03125,56 36.53125,56 q 0.921875,0 2.046875,-0.125 1.125,-0.109375 2.484375,-0.359375 z"
               id="DejaVuSans-114" />
            <path
               id="DejaVuSans-32"
               d="" />
            <path
               d="m 30.609375,48.390625 q -7.21875,0 -11.421875,-5.640625 -4.203125,-5.640625 -4.203125,-15.453125 0,-9.8125 4.171875,-15.453125 4.1875,-5.640625 11.453125,-5.640625 7.1875,0 11.375,5.65625 4.203125,5.671875 4.203125,15.4375 0,9.71875 -4.203125,15.40625 -4.1875,5.6875 -11.375,5.6875 z m 0,7.609375 q 11.71875,0 18.40625,-7.625 6.703125,-7.609375 6.703125,-21.078125 0,-13.421875 -6.703125,-21.078125 -6.6875,-7.640625 -18.40625,-7.640625 -11.765625,0 -18.4375,7.640625 -6.65625,7.65625 -6.65625,21.078125 0,13.46875 6.65625,21.078125 Q 18.84375,56 30.609375,56 Z"
               id="DejaVuSans-111" />
            <path
               d="M 37.109375,75.984375 V 68.5 h -8.59375 q -4.828125,0 -6.71875,-1.953125 -1.875,-1.953125 -1.875,-7.03125 V 54.6875 H 34.71875 V 47.703125 H 19.921875 V 0 h -9.03125 V 47.703125 H 2.296875 V 54.6875 h 8.59375 V 58.5 q 0,9.125 4.25,13.296875 4.25,4.1875 13.46875,4.1875 z"
               id="DejaVuSans-102" />
            <path
               d="m 9.8125,72.90625 h 9.859375 V 43.015625 h 35.84375 V 72.90625 H 65.375 V 0 H 55.515625 V 34.71875 H 19.671875 V 0 H 9.8125 Z"
               id="DejaVuSans-72" />
            <path
               d="M 9.421875,54.6875 H 18.40625 V 0 H 9.421875 Z m 0,21.296875 H 18.40625 V 64.59375 H 9.421875 Z"
               id="DejaVuSans-105" />
            <path
               d="m 45.40625,46.390625 v 29.59375 h 8.984375 V 0 H 45.40625 v 8.203125 q -2.828125,-4.875 -7.15625,-7.25 -4.3125,-2.375 -10.375,-2.375 -9.90625,0 -16.140625,7.90625 -6.21875,7.921875 -6.21875,20.8125 0,12.890625 6.21875,20.796875 Q 17.96875,56 27.875,56 q 6.0625,0 10.375,-2.375 4.328125,-2.359375 7.15625,-7.234375 z M 14.796875,27.296875 q 0,-9.90625 4.078125,-15.546875 4.078125,-5.640625 11.203125,-5.640625 7.125,0 11.21875,5.640625 4.109375,5.640625 4.109375,15.546875 0,9.90625 -4.109375,15.546875 -4.09375,5.640625 -11.21875,5.640625 -7.125,0 -11.203125,-5.640625 -4.078125,-5.640625 -4.078125,-15.546875 z"
               id="DejaVuSans-100" />
            <path
               d="M 54.890625,33.015625 V 0 H 45.90625 v 32.71875 q 0,7.765625 -3.03125,11.609375 -3.03125,3.859375 -9.078125,3.859375 -7.28125,0 -11.484375,-4.640625 -4.203125,-4.625 -4.203125,-12.640625 V 0 h -9.03125 v 54.6875 h 9.03125 v -8.5 q 3.234375,4.9375 7.59375,7.375 4.375,2.4375 10.09375,2.4375 9.421875,0 14.25,-5.828125 4.84375,-5.828125 4.84375,-17.15625 z"
               id="DejaVuSans-110" />
            <path
               d="m 53.515625,70.515625 v -9.625 q -5.609375,2.6875 -10.59375,4 -4.984375,1.328125 -9.625,1.328125 -8.046875,0 -12.421875,-3.125 -4.375,-3.125 -4.375,-8.890625 0,-4.84375 2.90625,-7.3125 2.90625,-2.453125 11.015625,-3.96875 L 36.375,41.703125 Q 47.40625,39.59375 52.65625,34.296875 57.90625,29 57.90625,20.125 q 0,-10.609375 -7.109375,-16.078125 -7.09375,-5.46875 -20.8125,-5.46875 -5.171875,0 -11.015625,1.171875 Q 13.140625,0.921875 6.890625,3.21875 V 13.375 q 6,-3.359375 11.765625,-5.078125 5.765625,-1.703125 11.328125,-1.703125 8.4375,0 13.03125,3.3125 4.59375,3.328125 4.59375,9.484375 0,5.359375 -3.296875,8.390625 Q 41.015625,30.8125 33.5,32.328125 L 27.484375,33.5 q -11.03125,2.1875 -15.96875,6.875 -4.921875,4.6875 -4.921875,13.046875 0,9.671875 6.8125,15.234375 6.8125,5.5625 18.765625,5.5625 5.140625,0 10.453125,-0.9375 5.328125,-0.921875 10.890625,-2.765625 z"
               id="DejaVuSans-83" />
            <path
               d="M 18.3125,70.21875 V 54.6875 h 18.5 v -6.984375 h -18.5 v -29.6875 q 0,-6.6875 1.828125,-8.59375 1.828125,-1.90625 7.453125,-1.90625 H 36.8125 V 0 H 27.59375 Q 17.1875,0 13.234375,3.875 9.28125,7.765625 9.28125,18.015625 v 29.6875 H 2.6875 V 54.6875 h 6.59375 v 15.53125 z"
               id="DejaVuSans-116" />
            <path
               d="m 34.28125,27.484375 q -10.890625,0 -15.09375,-2.484375 -4.203125,-2.484375 -4.203125,-8.5 0,-4.78125 3.15625,-7.59375 3.15625,-2.796875 8.5625,-2.796875 7.484375,0 12,5.296875 4.515625,5.296875 4.515625,14.078125 v 2 z m 17.921875,3.71875 V 0 H 43.21875 v 8.296875 q -3.078125,-4.96875 -7.671875,-7.34375 -4.59375,-2.375 -11.234375,-2.375 -8.390625,0 -13.359375,4.71875 Q 6,8.015625 6,15.921875 q 0,9.21875 6.171875,13.90625 6.1875,4.6875 18.4375,4.6875 H 43.21875 v 0.890625 q 0,6.203125 -4.078125,9.59375 -4.078125,3.390625 -11.453125,3.390625 -4.6875,0 -9.140625,-1.125 -4.4375,-1.125 -8.53125,-3.375 v 8.3125 q 4.921875,1.90625 9.5625,2.84375 Q 24.21875,56 28.609375,56 q 11.875,0 17.734375,-6.15625 5.859375,-6.140625 5.859375,-18.640625 z"
               id="DejaVuSans-97" />
            <path
               d="m 44.28125,53.078125 v -8.5 Q 40.484375,46.53125 36.375,47.5 q -4.09375,0.984375 -8.5,0.984375 -6.6875,0 -10.03125,-2.046875 Q 14.5,44.390625 14.5,40.28125 q 0,-3.125 2.390625,-4.90625 2.390625,-1.78125 9.625,-3.390625 l 3.078125,-0.6875 Q 39.15625,29.25 43.1875,25.515625 47.21875,21.78125 47.21875,15.09375 q 0,-7.625 -6.03125,-12.078125 -6.03125,-4.4375 -16.578125,-4.4375 -4.390625,0 -9.15625,0.859375 Q 10.6875,0.296875 5.421875,2 v 9.28125 q 4.984375,-2.59375 9.8125,-3.890625 4.828125,-1.28125 9.578125,-1.28125 6.34375,0 9.75,2.171875 3.421875,2.171875 3.421875,6.125 0,3.65625 -2.46875,5.609375 -2.453125,1.953125 -10.8125,3.765625 l -3.125,0.734375 q -8.34375,1.75 -12.0625,5.390625 -3.703125,3.640625 -3.703125,9.984375 0,7.71875 5.46875,11.90625 Q 16.75,56 26.8125,56 q 4.96875,0 9.359375,-0.734375 4.40625,-0.71875 8.109375,-2.1875 z"
               id="DejaVuSans-115" />
            <path
               d="M 31,75.875 Q 24.46875,64.65625 21.28125,53.65625 18.109375,42.671875 18.109375,31.390625 18.109375,20.125 21.3125,9.0625 24.515625,-2 31,-13.1875 H 23.1875 Q 15.875,-1.703125 12.234375,9.375 8.59375,20.453125 8.59375,31.390625 q 0,10.890625 3.609375,21.921875 3.625,11.046875 10.984375,22.5625 z"
               id="DejaVuSans-40" />
            <path
               d="m 8.015625,75.875 h 7.8125 q 7.3125,-11.515625 10.953125,-22.5625 3.640625,-11.03125 3.640625,-21.921875 0,-10.9375 -3.640625,-22.015625 -3.640625,-11.078125 -10.953125,-22.5625 h -7.8125 Q 14.5,-2 17.703125,9.0625 20.90625,20.125 20.90625,31.390625 q 0,11.28125 -3.203125,22.265625 -3.203125,11 -9.6875,22.21875 z"
               id="DejaVuSans-41" />
          </defs>
          <use
             xlink:href="#DejaVuSans-78"
             id="use115"
             x="0"
             y="0"
             width="100%"
             height="100%" />
          <use
             x="74.804688"
             xlink:href="#DejaVuSans-117"
             id="use117"
             y="0"
             width="100%"
             height="100%" />
          <use
             x="138.18359"
             xlink:href="#DejaVuSans-109"
             id="use119"
             y="0"
             width="100%"
             height="100%" />
          <use
             x="235.5957"
             xlink:href="#DejaVuSans-98"
             id="use121"
             y="0"
             width="100%"
             height="100%" />
          <use
             x="299.07227"
             xlink:href="#DejaVuSans-101"
             id="use123"
             y="0"
             width="100%"
             height="100%" />
          <use
             x="360.5957"
             xlink:href="#DejaVuSans-114"
             id="use125"
             y="0"
             width="100%"
             height="100%" />
          <use
             x="401.70898"
             xlink:href="#DejaVuSans-32"
             id="use127"
             y="0"
             width="100%"
             height="100%" />
          <use
             x="433.49609"
             xlink:href="#DejaVuSans-111"
             id="use129"
             y="0"
             width="100%"
             height="100%" />
          <use
             x="494.67773"
             xlink:href="#DejaVuSans-102"
             id="use131"
             y="0"
             width="100%"
             height="100%" />
          <use
             x="529.88281"
             xlink:href="#DejaVuSans-32"
             id="use133"
             y="0"
             width="100%"
             height="100%" />
          <use
             x="561.66992"
             xlink:href="#DejaVuSans-72"
             id="use135"
             y="0"
             width="100%"
             height="100%" />
          <use
             x="636.86523"
             xlink:href="#DejaVuSans-105"
             id="use137"
             y="0"
             width="100%"
             height="100%" />
          <use
             x="664.64844"
             xlink:href="#DejaVuSans-100"
             id="use139"
             y="0"
             width="100%"
             height="100%" />
          <use
             x="728.125"
             xlink:href="#DejaVuSans-100"
             id="use141"
             y="0"
             width="100%"
             height="100%" />
          <use
             x="791.60156"
             xlink:href="#DejaVuSans-101"
             id="use143"
             y="0"
             width="100%"
             height="100%" />
          <use
             x="853.125"
             xlink:href="#DejaVuSans-110"
             id="use145"
             y="0"
             width="100%"
             height="100%" />
          <use
             x="916.50391"
             xlink:href="#DejaVuSans-32"
             id="use147"
             y="0"
             width="100%"
             height="100%" />
          <use
             x="948.29102"
             xlink:href="#DejaVuSans-83"
             id="use149"
             y="0"
             width="100%"
             height="100%" />
          <use
             x="1011.7676"
             xlink:href="#DejaVuSans-116"
             id="use151"
             y="0"
             width="100%"
             height="100%" />
          <use
             x="1050.9766"
             xlink:href="#DejaVuSans-97"
             id="use153"
             y="0"
             width="100%"
             height="100%" />
          <use
             x="1112.2559"
             xlink:href="#DejaVuSans-116"
             id="use155"
             y="0"
             width="100%"
             height="100%" />
          <use
             x="1151.4648"
             xlink:href="#DejaVuSans-101"
             id="use157"
             y="0"
             width="100%"
             height="100%" />
          <use
             x="1212.9883"
             xlink:href="#DejaVuSans-115"
             id="use159"
             y="0"
             width="100%"
             height="100%" />
          <use
             x="1265.0879"
             xlink:href="#DejaVuSans-32"
             id="use161"
             y="0"
             width="100%"
             height="100%" />
          <use
             x="1296.875"
             xlink:href="#DejaVuSans-40"
             id="use163"
             y="0"
             width="100%"
             height="100%" />
          <use
             x="1335.8887"
             xlink:href="#DejaVuSans-72"
             id="use165"
             y="0"
             width="100%"
             height="100%" />
          <use
             x="1411.084"
             xlink:href="#DejaVuSans-41"
             id="use167"
             y="0"
             width="100%"
             height="100%" />
        </g>
      </g>
    </g>
    <g
       id="matplotlib.axis_2">
      <g
         id="ytick_1">
        <g
           id="line2d_5">
          <defs
             id="defs174">
            <path
               d="M 0,0 H -3.5"
               id="mff497e00e8"
               style="stroke:#000000;stroke-width:0.8" />
          </defs>
          <g
             id="g178">
            <use
               style="stroke:#000000;stroke-width:0.8"
               x="43.200001"
               xlink:href="#mff497e00e8"
               y="176.88879"
               id="use176"
               width="100%"
               height="100%" />
          </g>
        </g>
        <g
           id="text_6">
          <!-- 0.33 -->
          <g
             transform="matrix(0.1,0,0,-0.1,13.934375,180.68801)"
             id="g192">
            <defs
               id="defs182">
              <path
                 d="M 10.6875,12.40625 H 21 V 0 H 10.6875 Z"
                 id="DejaVuSans-46" />
            </defs>
            <use
               xlink:href="#DejaVuSans-48"
               id="use184"
               x="0"
               y="0"
               width="100%"
               height="100%" />
            <use
               x="63.623047"
               xlink:href="#DejaVuSans-46"
               id="use186"
               y="0"
               width="100%"
               height="100%" />
            <use
               x="95.410156"
               xlink:href="#DejaVuSans-51"
               id="use188"
               y="0"
               width="100%"
               height="100%" />
            <use
               x="159.0332"
               xlink:href="#DejaVuSans-51"
               id="use190"
               y="0"
               width="100%"
               height="100%" />
          </g>
        </g>
      </g>
      <g
         id="ytick_2">
        <g
           id="line2d_6">
          <g
             id="g198">
            <use
               style="stroke:#000000;stroke-width:0.8"
               x="43.200001"
               xlink:href="#mff497e00e8"
               y="133.69467"
               id="use196"
               width="100%"
               height="100%" />
          </g>
        </g>
        <g
           id="text_7">
          <!-- 0.34 -->
          <g
             transform="matrix(0.1,0,0,-0.1,13.934375,137.49389)"
             id="g209">
            <use
               xlink:href="#DejaVuSans-48"
               id="use201"
               x="0"
               y="0"
               width="100%"
               height="100%" />
            <use
               x="63.623047"
               xlink:href="#DejaVuSans-46"
               id="use203"
               y="0"
               width="100%"
               height="100%" />
            <use
               x="95.410156"
               xlink:href="#DejaVuSans-51"
               id="use205"
               y="0"
               width="100%"
               height="100%" />
            <use
               x="159.0332"
               xlink:href="#DejaVuSans-52"
               id="use207"
               y="0"
               width="100%"
               height="100%" />
          </g>
        </g>
      </g>
      <g
         id="ytick_3">
        <g
           id="line2d_7">
          <g
             id="g215">
            <use
               style="stroke:#000000;stroke-width:0.8"
               x="43.200001"
               xlink:href="#mff497e00e8"
               y="90.500549"
               id="use213"
               width="100%"
               height="100%" />
          </g>
        </g>
        <g
           id="text_8">
          <!-- 0.35 -->
          <g
             transform="matrix(0.1,0,0,-0.1,13.934375,94.29977)"
             id="g229">
            <defs
               id="defs219">
              <path
                 d="m 10.796875,72.90625 h 38.71875 v -8.3125 h -29.6875 V 46.734375 q 2.140625,0.734375 4.28125,1.09375 2.15625,0.359375 4.3125,0.359375 Q 40.625,48.1875 47.75,41.5 54.890625,34.8125 54.890625,23.390625 54.890625,11.625 47.5625,5.09375 40.234375,-1.421875 26.90625,-1.421875 q -4.59375,0 -9.359375,0.78125 -4.75,0.78125 -9.828125,2.34375 V 11.625 q 4.390625,-2.390625 9.078125,-3.5625 4.6875,-1.171875 9.90625,-1.171875 8.453125,0 13.375,4.4375 4.9375,4.4375 4.9375,12.0625 0,7.609375 -4.9375,12.046875 -4.921875,4.453125 -13.375,4.453125 -3.953125,0 -7.890625,-0.875 -3.921875,-0.875 -8.015625,-2.734375 z"
                 id="DejaVuSans-53" />
            </defs>
            <use
               xlink:href="#DejaVuSans-48"
               id="use221"
               x="0"
               y="0"
               width="100%"
               height="100%" />
            <use
               x="63.623047"
               xlink:href="#DejaVuSans-46"
               id="use223"
               y="0"
               width="100%"
               height="100%" />
            <use
               x="95.410156"
               xlink:href="#DejaVuSans-51"
               id="use225"
               y="0"
               width="100%"
               height="100%" />
            <use
               x="159.0332"
               xlink:href="#DejaVuSans-53"
               id="use227"
               y="0"
               width="100%"
               height="100%" />
          </g>
        </g>
      </g>
      <g
         id="ytick_4">
        <g
           id="line2d_8">
          <g
             id="g235">
            <use
               style="stroke:#000000;stroke-width:0.8"
               x="43.200001"
               xlink:href="#mff497e00e8"
               y="47.306431"
               id="use233"
               width="100%"
               height="100%" />
          </g>
        </g>
        <g
           id="text_9">
          <!-- 0.36 -->
          <g
             transform="matrix(0.1,0,0,-0.1,13.934375,51.10565)"
             id="g249">
            <defs
               id="defs239">
              <path
                 d="m 33.015625,40.375 q -6.640625,0 -10.53125,-4.546875 -3.875,-4.53125 -3.875,-12.4375 0,-7.859375 3.875,-12.4375 3.890625,-4.5625 10.53125,-4.5625 6.640625,0 10.515625,4.5625 3.875,4.578125 3.875,12.4375 0,7.90625 -3.875,12.4375 Q 39.65625,40.375 33.015625,40.375 Z M 52.59375,71.296875 V 62.3125 q -3.71875,1.75 -7.5,2.671875 -3.78125,0.9375 -7.5,0.9375 -9.765625,0 -14.921875,-6.59375 -5.140625,-6.59375 -5.875,-19.921875 2.875,4.25 7.21875,6.515625 4.359375,2.265625 9.578125,2.265625 10.984375,0 17.359375,-6.671875 6.375,-6.65625 6.375,-18.125 0,-11.234375 -6.640625,-18.03125 -6.640625,-6.78125 -17.671875,-6.78125 -12.65625,0 -19.34375,9.6875 -6.6875,9.703125 -6.6875,28.109375 0,17.28125 8.203125,27.5625 8.203125,10.28125 22.015625,10.28125 3.71875,0 7.5,-0.734375 3.78125,-0.734375 7.890625,-2.1875 z"
                 id="DejaVuSans-54" />
            </defs>
            <use
               xlink:href="#DejaVuSans-48"
               id="use241"
               x="0"
               y="0"
               width="100%"
               height="100%" />
            <use
               x="63.623047"
               xlink:href="#DejaVuSans-46"
               id="use243"
               y="0"
               width="100%"
               height="100%" />
            <use
               x="95.410156"
               xlink:href="#DejaVuSans-51"
               id="use245"
               y="0"
               width="100%"
               height="100%" />
            <use
               x="159.0332"
               xlink:href="#DejaVuSans-54"
               id="use247"
               y="0"
               width="100%"
               height="100%" />
          </g>
        </g>
      </g>
      <g
         id="text_10">
        <!-- MAE -->
        <g
           transform="matrix(0,-0.12,-0.12,0,7.43875,114.5925)"
           id="g264">
          <defs
             id="defs256">
            <path
               d="M 9.8125,72.90625 H 24.515625 L 43.109375,23.296875 61.8125,72.90625 H 76.515625 V 0 h -9.625 v 64.015625 l -18.796875,-50 H 38.1875 l -18.796875,50 V 0 H 9.8125 Z"
               id="DejaVuSans-77" />
            <path
               d="M 34.1875,63.1875 20.796875,26.90625 h 26.8125 z m -5.578125,9.71875 h 11.1875 L 67.578125,0 h -10.25 L 50.6875,18.703125 H 17.828125 L 11.1875,0 H 0.78125 Z"
               id="DejaVuSans-65" />
            <path
               d="m 9.8125,72.90625 h 46.09375 v -8.3125 H 19.671875 V 43.015625 h 34.71875 V 34.71875 H 19.671875 V 8.296875 H 56.78125 V 0 H 9.8125 Z"
               id="DejaVuSans-69" />
          </defs>
          <use
             xlink:href="#DejaVuSans-77"
             id="use258"
             x="0"
             y="0"
             width="100%"
             height="100%" />
          <use
             x="86.279297"
             xlink:href="#DejaVuSans-65"
             id="use260"
             y="0"
             width="100%"
             height="100%" />
          <use
             x="154.6875"
             xlink:href="#DejaVuSans-69"
             id="use262"
             y="0"
             width="100%"
             height="100%" />
        </g>
      </g>
    </g>
    <g
       id="patch_7">
      <path
         d="M 43.2,177.12 V 25.92"
         style="fill:none;stroke:#000000;stroke-width:0.8;stroke-linecap:square;stroke-linejoin:miter"
         id="path268" />
    </g>
    <g
       id="patch_8">
      <path
         d="M 259.2,177.12 V 25.92"
         style="fill:none;stroke:#000000;stroke-width:0.8;stroke-linecap:square;stroke-linejoin:miter"
         id="path271" />
    </g>
    <g
       id="patch_9">
      <path
         d="m 43.2,177.12 h 216"
         style="fill:none;stroke:#000000;stroke-width:0.8;stroke-linecap:square;stroke-linejoin:miter"
         id="path274" />
    </g>
    <g
       id="patch_10">
      <path
         d="m 43.2,25.92 h 216"
         style="fill:none;stroke:#000000;stroke-width:0.8;stroke-linecap:square;stroke-linejoin:miter"
         id="path277" />
    </g>
  </g>
  <defs
     id="defs285">
    <clipPath
       id="pad3d424f9d">
      <rect
         height="151.2"
         width="216"
         x="43.2"
         y="25.92"
         id="rect282" />
    </clipPath>
  </defs>
</svg>
